<mxfile host="app.diagrams.net" modified="2023-05-09T07:38:51.731Z" agent="Mozilla/5.0 (Windows NT 10.0; Win64; x64) AppleWebKit/537.36 (KHTML, like Gecko) Chrome/112.0.0.0 Safari/537.36" etag="Zig2LTVHR19HwVZENn-u" version="21.2.3" type="github">
  <diagram id="C5RBs43oDa-KdzZeNtuy" name="Page-1">
    <mxGraphModel dx="1050" dy="581" grid="1" gridSize="10" guides="1" tooltips="1" connect="1" arrows="1" fold="1" page="1" pageScale="1" pageWidth="827" pageHeight="1169" math="0" shadow="0">
      <root>
        <mxCell id="WIyWlLk6GJQsqaUBKTNV-0" />
        <mxCell id="WIyWlLk6GJQsqaUBKTNV-1" parent="WIyWlLk6GJQsqaUBKTNV-0" />
        <mxCell id="WIyWlLk6GJQsqaUBKTNV-2" value="" style="rounded=0;html=1;jettySize=auto;orthogonalLoop=1;fontSize=11;endArrow=block;endFill=0;endSize=8;strokeWidth=1;shadow=0;labelBackgroundColor=none;edgeStyle=orthogonalEdgeStyle;" parent="WIyWlLk6GJQsqaUBKTNV-1" source="WIyWlLk6GJQsqaUBKTNV-3" target="WIyWlLk6GJQsqaUBKTNV-6" edge="1">
          <mxGeometry relative="1" as="geometry" />
        </mxCell>
        <mxCell id="WIyWlLk6GJQsqaUBKTNV-3" value="Start" style="rounded=1;whiteSpace=wrap;html=1;fontSize=12;glass=0;strokeWidth=1;shadow=0;" parent="WIyWlLk6GJQsqaUBKTNV-1" vertex="1">
          <mxGeometry x="160" y="80" width="120" height="40" as="geometry" />
        </mxCell>
        <mxCell id="oW8vfRG4xfct3vdIjHn0-7" value="" style="edgeStyle=orthogonalEdgeStyle;rounded=0;orthogonalLoop=1;jettySize=auto;html=1;" edge="1" parent="WIyWlLk6GJQsqaUBKTNV-1" source="WIyWlLk6GJQsqaUBKTNV-6" target="oW8vfRG4xfct3vdIjHn0-6">
          <mxGeometry relative="1" as="geometry" />
        </mxCell>
        <mxCell id="WIyWlLk6GJQsqaUBKTNV-6" value="Internet Connectivity" style="rhombus;whiteSpace=wrap;html=1;shadow=0;fontFamily=Helvetica;fontSize=12;align=center;strokeWidth=1;spacing=6;spacingTop=-4;" parent="WIyWlLk6GJQsqaUBKTNV-1" vertex="1">
          <mxGeometry x="170" y="170" width="100" height="80" as="geometry" />
        </mxCell>
        <mxCell id="oW8vfRG4xfct3vdIjHn0-1" value="" style="edgeStyle=orthogonalEdgeStyle;rounded=0;orthogonalLoop=1;jettySize=auto;html=1;exitX=1;exitY=0.5;exitDx=0;exitDy=0;entryX=0;entryY=0.5;entryDx=0;entryDy=0;" edge="1" parent="WIyWlLk6GJQsqaUBKTNV-1" source="oW8vfRG4xfct3vdIjHn0-10" target="oW8vfRG4xfct3vdIjHn0-0">
          <mxGeometry relative="1" as="geometry">
            <mxPoint x="440" y="200" as="sourcePoint" />
          </mxGeometry>
        </mxCell>
        <mxCell id="oW8vfRG4xfct3vdIjHn0-0" value="Connected" style="whiteSpace=wrap;html=1;rounded=1;glass=0;strokeWidth=1;shadow=0;" vertex="1" parent="WIyWlLk6GJQsqaUBKTNV-1">
          <mxGeometry x="510" y="190" width="120" height="40" as="geometry" />
        </mxCell>
        <mxCell id="oW8vfRG4xfct3vdIjHn0-2" value="Allow" style="text;html=1;align=center;verticalAlign=middle;resizable=0;points=[];autosize=1;strokeColor=none;fillColor=none;" vertex="1" parent="WIyWlLk6GJQsqaUBKTNV-1">
          <mxGeometry x="450" y="180" width="50" height="30" as="geometry" />
        </mxCell>
        <mxCell id="oW8vfRG4xfct3vdIjHn0-17" value="" style="edgeStyle=orthogonalEdgeStyle;rounded=0;orthogonalLoop=1;jettySize=auto;html=1;" edge="1" parent="WIyWlLk6GJQsqaUBKTNV-1" source="oW8vfRG4xfct3vdIjHn0-6" target="oW8vfRG4xfct3vdIjHn0-16">
          <mxGeometry relative="1" as="geometry" />
        </mxCell>
        <mxCell id="oW8vfRG4xfct3vdIjHn0-6" value="Send the Request" style="whiteSpace=wrap;html=1;shadow=0;strokeWidth=1;spacing=6;spacingTop=-4;" vertex="1" parent="WIyWlLk6GJQsqaUBKTNV-1">
          <mxGeometry x="160" y="300" width="120" height="40" as="geometry" />
        </mxCell>
        <mxCell id="oW8vfRG4xfct3vdIjHn0-8" value="" style="curved=1;endArrow=classic;html=1;rounded=0;exitX=0.5;exitY=1;exitDx=0;exitDy=0;entryX=1;entryY=0.5;entryDx=0;entryDy=0;" edge="1" parent="WIyWlLk6GJQsqaUBKTNV-1" source="oW8vfRG4xfct3vdIjHn0-0" target="oW8vfRG4xfct3vdIjHn0-6">
          <mxGeometry width="50" height="50" relative="1" as="geometry">
            <mxPoint x="430" y="360" as="sourcePoint" />
            <mxPoint x="480" y="310" as="targetPoint" />
            <Array as="points">
              <mxPoint x="430" y="310" />
            </Array>
          </mxGeometry>
        </mxCell>
        <mxCell id="oW8vfRG4xfct3vdIjHn0-9" value="Yes" style="text;html=1;align=center;verticalAlign=middle;resizable=0;points=[];autosize=1;strokeColor=none;fillColor=none;" vertex="1" parent="WIyWlLk6GJQsqaUBKTNV-1">
          <mxGeometry x="220" y="248" width="40" height="30" as="geometry" />
        </mxCell>
        <mxCell id="oW8vfRG4xfct3vdIjHn0-10" value="Permission&lt;br&gt;Alert" style="rhombus;whiteSpace=wrap;html=1;" vertex="1" parent="WIyWlLk6GJQsqaUBKTNV-1">
          <mxGeometry x="340" y="165" width="100" height="90" as="geometry" />
        </mxCell>
        <mxCell id="oW8vfRG4xfct3vdIjHn0-11" value="" style="endArrow=classic;html=1;rounded=0;entryX=0;entryY=0.5;entryDx=0;entryDy=0;exitX=1;exitY=0.5;exitDx=0;exitDy=0;" edge="1" parent="WIyWlLk6GJQsqaUBKTNV-1" source="WIyWlLk6GJQsqaUBKTNV-6" target="oW8vfRG4xfct3vdIjHn0-10">
          <mxGeometry width="50" height="50" relative="1" as="geometry">
            <mxPoint x="80" y="280" as="sourcePoint" />
            <mxPoint x="130" y="230" as="targetPoint" />
          </mxGeometry>
        </mxCell>
        <mxCell id="oW8vfRG4xfct3vdIjHn0-12" value="No" style="text;html=1;align=center;verticalAlign=middle;resizable=0;points=[];autosize=1;strokeColor=none;fillColor=none;" vertex="1" parent="WIyWlLk6GJQsqaUBKTNV-1">
          <mxGeometry x="270" y="180" width="40" height="30" as="geometry" />
        </mxCell>
        <mxCell id="oW8vfRG4xfct3vdIjHn0-14" value="" style="endArrow=classic;html=1;rounded=0;" edge="1" parent="WIyWlLk6GJQsqaUBKTNV-1">
          <mxGeometry width="50" height="50" relative="1" as="geometry">
            <mxPoint x="340" y="230" as="sourcePoint" />
            <mxPoint x="260" y="230" as="targetPoint" />
          </mxGeometry>
        </mxCell>
        <mxCell id="oW8vfRG4xfct3vdIjHn0-15" value="Deny&lt;br&gt;" style="text;html=1;align=center;verticalAlign=middle;resizable=0;points=[];autosize=1;strokeColor=none;fillColor=none;" vertex="1" parent="WIyWlLk6GJQsqaUBKTNV-1">
          <mxGeometry x="290" y="225" width="50" height="30" as="geometry" />
        </mxCell>
        <mxCell id="oW8vfRG4xfct3vdIjHn0-20" value="" style="edgeStyle=orthogonalEdgeStyle;rounded=0;orthogonalLoop=1;jettySize=auto;html=1;" edge="1" parent="WIyWlLk6GJQsqaUBKTNV-1" source="oW8vfRG4xfct3vdIjHn0-16" target="oW8vfRG4xfct3vdIjHn0-19">
          <mxGeometry relative="1" as="geometry" />
        </mxCell>
        <mxCell id="oW8vfRG4xfct3vdIjHn0-24" value="" style="edgeStyle=orthogonalEdgeStyle;rounded=0;orthogonalLoop=1;jettySize=auto;html=1;" edge="1" parent="WIyWlLk6GJQsqaUBKTNV-1" source="oW8vfRG4xfct3vdIjHn0-16" target="oW8vfRG4xfct3vdIjHn0-23">
          <mxGeometry relative="1" as="geometry" />
        </mxCell>
        <mxCell id="oW8vfRG4xfct3vdIjHn0-16" value="Establish&lt;br&gt;Connection&amp;nbsp;&lt;br&gt;with Server&lt;br&gt;using&lt;br&gt;TCP/UDP" style="rhombus;whiteSpace=wrap;html=1;shadow=0;strokeWidth=1;spacing=6;spacingTop=-4;" vertex="1" parent="WIyWlLk6GJQsqaUBKTNV-1">
          <mxGeometry x="138.75" y="375" width="162.5" height="110" as="geometry" />
        </mxCell>
        <mxCell id="oW8vfRG4xfct3vdIjHn0-19" value="Connection Failed" style="whiteSpace=wrap;html=1;shadow=0;strokeWidth=1;spacing=6;spacingTop=-4;" vertex="1" parent="WIyWlLk6GJQsqaUBKTNV-1">
          <mxGeometry x="354" y="410" width="120" height="40" as="geometry" />
        </mxCell>
        <mxCell id="oW8vfRG4xfct3vdIjHn0-21" value="Failed" style="text;html=1;align=center;verticalAlign=middle;resizable=0;points=[];autosize=1;strokeColor=none;fillColor=none;" vertex="1" parent="WIyWlLk6GJQsqaUBKTNV-1">
          <mxGeometry x="290" y="400" width="60" height="30" as="geometry" />
        </mxCell>
        <mxCell id="oW8vfRG4xfct3vdIjHn0-27" value="" style="edgeStyle=orthogonalEdgeStyle;rounded=0;orthogonalLoop=1;jettySize=auto;html=1;" edge="1" parent="WIyWlLk6GJQsqaUBKTNV-1" source="oW8vfRG4xfct3vdIjHn0-23" target="oW8vfRG4xfct3vdIjHn0-26">
          <mxGeometry relative="1" as="geometry" />
        </mxCell>
        <mxCell id="oW8vfRG4xfct3vdIjHn0-30" value="" style="edgeStyle=orthogonalEdgeStyle;rounded=0;orthogonalLoop=1;jettySize=auto;html=1;entryX=0.145;entryY=0.028;entryDx=0;entryDy=0;entryPerimeter=0;" edge="1" parent="WIyWlLk6GJQsqaUBKTNV-1" source="oW8vfRG4xfct3vdIjHn0-23" target="oW8vfRG4xfct3vdIjHn0-29">
          <mxGeometry relative="1" as="geometry" />
        </mxCell>
        <mxCell id="oW8vfRG4xfct3vdIjHn0-23" value="Request &lt;br&gt;Processing&lt;br&gt;On Server" style="rhombus;whiteSpace=wrap;html=1;shadow=0;strokeWidth=1;spacing=6;spacingTop=-4;" vertex="1" parent="WIyWlLk6GJQsqaUBKTNV-1">
          <mxGeometry x="138.75" y="520" width="162.5" height="110" as="geometry" />
        </mxCell>
        <mxCell id="oW8vfRG4xfct3vdIjHn0-25" value="Success" style="text;html=1;align=center;verticalAlign=middle;resizable=0;points=[];autosize=1;strokeColor=none;fillColor=none;" vertex="1" parent="WIyWlLk6GJQsqaUBKTNV-1">
          <mxGeometry x="220" y="490" width="70" height="30" as="geometry" />
        </mxCell>
        <mxCell id="oW8vfRG4xfct3vdIjHn0-26" value="Wrong Request Type" style="whiteSpace=wrap;html=1;shadow=0;strokeWidth=1;spacing=6;spacingTop=-4;" vertex="1" parent="WIyWlLk6GJQsqaUBKTNV-1">
          <mxGeometry x="360" y="552.5" width="120" height="45" as="geometry" />
        </mxCell>
        <mxCell id="oW8vfRG4xfct3vdIjHn0-28" value="Failed" style="text;html=1;align=center;verticalAlign=middle;resizable=0;points=[];autosize=1;strokeColor=none;fillColor=none;" vertex="1" parent="WIyWlLk6GJQsqaUBKTNV-1">
          <mxGeometry x="294" y="550" width="60" height="30" as="geometry" />
        </mxCell>
        <mxCell id="oW8vfRG4xfct3vdIjHn0-29" value="Receive the Desired Response From Server" style="whiteSpace=wrap;html=1;shadow=0;strokeWidth=1;spacing=6;spacingTop=-4;" vertex="1" parent="WIyWlLk6GJQsqaUBKTNV-1">
          <mxGeometry x="160" y="670" width="410" height="40" as="geometry" />
        </mxCell>
        <mxCell id="oW8vfRG4xfct3vdIjHn0-31" value="Success" style="text;html=1;align=center;verticalAlign=middle;resizable=0;points=[];autosize=1;strokeColor=none;fillColor=none;" vertex="1" parent="WIyWlLk6GJQsqaUBKTNV-1">
          <mxGeometry x="220" y="630" width="70" height="30" as="geometry" />
        </mxCell>
        <mxCell id="oW8vfRG4xfct3vdIjHn0-32" value="" style="endArrow=classic;html=1;rounded=0;exitX=0.171;exitY=0.99;exitDx=0;exitDy=0;exitPerimeter=0;entryX=0.5;entryY=0;entryDx=0;entryDy=0;" edge="1" parent="WIyWlLk6GJQsqaUBKTNV-1" source="oW8vfRG4xfct3vdIjHn0-29" target="oW8vfRG4xfct3vdIjHn0-36">
          <mxGeometry width="50" height="50" relative="1" as="geometry">
            <mxPoint x="180" y="860" as="sourcePoint" />
            <mxPoint x="230" y="762.5" as="targetPoint" />
          </mxGeometry>
        </mxCell>
        <mxCell id="oW8vfRG4xfct3vdIjHn0-33" value="" style="endArrow=classic;html=1;rounded=0;entryX=0.5;entryY=0;entryDx=0;entryDy=0;exitX=0.851;exitY=1.024;exitDx=0;exitDy=0;exitPerimeter=0;" edge="1" parent="WIyWlLk6GJQsqaUBKTNV-1" source="oW8vfRG4xfct3vdIjHn0-29" target="oW8vfRG4xfct3vdIjHn0-37">
          <mxGeometry width="50" height="50" relative="1" as="geometry">
            <mxPoint x="520" y="710" as="sourcePoint" />
            <mxPoint x="510" y="762.5" as="targetPoint" />
          </mxGeometry>
        </mxCell>
        <mxCell id="oW8vfRG4xfct3vdIjHn0-40" value="" style="edgeStyle=orthogonalEdgeStyle;rounded=0;orthogonalLoop=1;jettySize=auto;html=1;" edge="1" parent="WIyWlLk6GJQsqaUBKTNV-1" source="oW8vfRG4xfct3vdIjHn0-36" target="oW8vfRG4xfct3vdIjHn0-39">
          <mxGeometry relative="1" as="geometry" />
        </mxCell>
        <mxCell id="oW8vfRG4xfct3vdIjHn0-36" value="Idle State" style="rounded=0;whiteSpace=wrap;html=1;" vertex="1" parent="WIyWlLk6GJQsqaUBKTNV-1">
          <mxGeometry x="170" y="760" width="120" height="40" as="geometry" />
        </mxCell>
        <mxCell id="oW8vfRG4xfct3vdIjHn0-42" value="" style="edgeStyle=orthogonalEdgeStyle;rounded=0;orthogonalLoop=1;jettySize=auto;html=1;" edge="1" parent="WIyWlLk6GJQsqaUBKTNV-1" source="oW8vfRG4xfct3vdIjHn0-37" target="oW8vfRG4xfct3vdIjHn0-41">
          <mxGeometry relative="1" as="geometry" />
        </mxCell>
        <mxCell id="oW8vfRG4xfct3vdIjHn0-37" value="Operational state" style="rounded=0;whiteSpace=wrap;html=1;" vertex="1" parent="WIyWlLk6GJQsqaUBKTNV-1">
          <mxGeometry x="450" y="760" width="120" height="40" as="geometry" />
        </mxCell>
        <mxCell id="oW8vfRG4xfct3vdIjHn0-39" value="Server Communication&lt;br&gt;Successfully done" style="rounded=1;whiteSpace=wrap;html=1;" vertex="1" parent="WIyWlLk6GJQsqaUBKTNV-1">
          <mxGeometry x="170" y="830" width="120" height="60" as="geometry" />
        </mxCell>
        <mxCell id="oW8vfRG4xfct3vdIjHn0-44" value="" style="edgeStyle=orthogonalEdgeStyle;rounded=0;orthogonalLoop=1;jettySize=auto;html=1;" edge="1" parent="WIyWlLk6GJQsqaUBKTNV-1" source="oW8vfRG4xfct3vdIjHn0-41" target="oW8vfRG4xfct3vdIjHn0-43">
          <mxGeometry relative="1" as="geometry" />
        </mxCell>
        <mxCell id="oW8vfRG4xfct3vdIjHn0-47" value="" style="edgeStyle=orthogonalEdgeStyle;rounded=0;orthogonalLoop=1;jettySize=auto;html=1;entryX=0.5;entryY=0;entryDx=0;entryDy=0;" edge="1" parent="WIyWlLk6GJQsqaUBKTNV-1" source="oW8vfRG4xfct3vdIjHn0-41" target="oW8vfRG4xfct3vdIjHn0-48">
          <mxGeometry relative="1" as="geometry">
            <mxPoint x="510" y="1045" as="targetPoint" />
          </mxGeometry>
        </mxCell>
        <mxCell id="oW8vfRG4xfct3vdIjHn0-41" value="Display Data" style="rhombus;whiteSpace=wrap;html=1;rounded=0;" vertex="1" parent="WIyWlLk6GJQsqaUBKTNV-1">
          <mxGeometry x="440" y="830" width="140" height="110" as="geometry" />
        </mxCell>
        <mxCell id="oW8vfRG4xfct3vdIjHn0-43" value="Something Went Wrong" style="whiteSpace=wrap;html=1;rounded=0;" vertex="1" parent="WIyWlLk6GJQsqaUBKTNV-1">
          <mxGeometry x="630" y="862.5" width="120" height="45" as="geometry" />
        </mxCell>
        <mxCell id="oW8vfRG4xfct3vdIjHn0-45" value="Failed" style="text;html=1;align=center;verticalAlign=middle;resizable=0;points=[];autosize=1;strokeColor=none;fillColor=none;" vertex="1" parent="WIyWlLk6GJQsqaUBKTNV-1">
          <mxGeometry x="570" y="855" width="60" height="30" as="geometry" />
        </mxCell>
        <mxCell id="oW8vfRG4xfct3vdIjHn0-48" value="Server Communication&lt;br style=&quot;border-color: var(--border-color);&quot;&gt;Successfully done" style="rounded=1;whiteSpace=wrap;html=1;" vertex="1" parent="WIyWlLk6GJQsqaUBKTNV-1">
          <mxGeometry x="450" y="980" width="120" height="60" as="geometry" />
        </mxCell>
        <mxCell id="oW8vfRG4xfct3vdIjHn0-50" value="Success" style="text;html=1;align=center;verticalAlign=middle;resizable=0;points=[];autosize=1;strokeColor=none;fillColor=none;" vertex="1" parent="WIyWlLk6GJQsqaUBKTNV-1">
          <mxGeometry x="500" y="940" width="70" height="30" as="geometry" />
        </mxCell>
      </root>
    </mxGraphModel>
  </diagram>
</mxfile>
